M48
; DRILL file {KiCad 5.1.8+dfsg1-1~bpo10+1} date Fri Nov 20 15:53:10 2020
; FORMAT={3:3/ absolute / metric / suppress leading zeros}
; #@! TF.CreationDate,2020-11-20T15:53:10+09:00
; #@! TF.GenerationSoftware,Kicad,Pcbnew,5.1.8+dfsg1-1~bpo10+1
FMAT,2
METRIC,TZ
T1C0.800
T2C1.000
T3C1.200
T4C2.100
T5C3.200
%
G90
G05
T1
X110490Y-80010
X120650Y-80010
X170260Y-123190
X175260Y-123190
X77470Y-71120
X77470Y-81280
X77470Y-91440
X77470Y-93980
X77470Y-96520
X65000Y-93000
X65000Y-95000
X110490Y-69850
X120650Y-69850
X133350Y-58420
X133350Y-68580
X118110Y-90170
X118110Y-92710
X118110Y-95250
X133350Y-134620
X133350Y-144780
X71120Y-82550
X71120Y-92710
X68580Y-129620
X68580Y-134620
X124460Y-55880
X127000Y-55880
X129540Y-55880
X64770Y-104680
X64770Y-106680
X170180Y-76200
X175180Y-76200
X133350Y-85090
X133350Y-95250
X113030Y-63500
X115570Y-63500
X118110Y-63500
X157480Y-97790
X157480Y-102790
X114300Y-87630
X114300Y-97790
X110490Y-119380
X120650Y-119380
X62770Y-82550
X64770Y-82550
X124460Y-144780
X127000Y-144780
X129540Y-144780
X114300Y-102870
X114300Y-113030
X110490Y-85090
X110490Y-95250
X170180Y-71120
X180340Y-71120
X127000Y-71120
X127000Y-81280
X98800Y-128410
X100800Y-128410
X115570Y-140970
X115570Y-143510
X115570Y-146050
X124460Y-95250
X127000Y-95250
X129540Y-95250
X73660Y-131350
X73660Y-133350
X80010Y-133350
X90170Y-133350
X110490Y-74930
X120650Y-74930
X62770Y-116840
X64770Y-116840
X98260Y-73800
X100260Y-73800
X110490Y-104140
X110490Y-114300
X77470Y-102870
X77470Y-105410
X77470Y-107950
X80010Y-144780
X90170Y-144780
X124460Y-105410
X127000Y-105410
X129540Y-105410
X133350Y-105410
X133350Y-115570
X77470Y-118110
X77470Y-128270
X63500Y-129620
X63500Y-134620
X63500Y-139700
X66040Y-139700
X68580Y-139700
X170180Y-128270
X180340Y-128270
X127000Y-120650
X127000Y-130810
X83820Y-118110
X83820Y-120110
X83820Y-81820
X83820Y-83820
X110490Y-129540
X120650Y-129540
X71120Y-106680
X71120Y-116840
X118110Y-105410
X118110Y-107950
X118110Y-110490
X110490Y-124460
X120650Y-124460
X58420Y-131350
X58420Y-133350
X113284Y-135890
X115824Y-135890
X118364Y-135890
X115570Y-53340
X115570Y-55880
X115570Y-58420
X88900Y-84840
X88900Y-86840
X88900Y-90840
X88900Y-96840
X88900Y-98840
X88900Y-100840
X88900Y-102840
X88900Y-110840
X88900Y-114840
X88900Y-116840
T2
X139700Y-111760
X139700Y-114300
X139700Y-116840
X139700Y-73660
X139700Y-76200
X139700Y-78740
X139700Y-132080
X139700Y-134620
X139700Y-137160
X139700Y-121920
X139700Y-124460
X139700Y-127000
X82550Y-139700
X85090Y-139700
X87630Y-139700
X139700Y-63500
X139700Y-66040
X139700Y-68580
X139700Y-83820
X139700Y-86360
X139700Y-88900
T3
X55000Y-82550
X55000Y-87630
X167640Y-139700
X175140Y-139700
X55000Y-111760
X55000Y-116840
X157480Y-73660
X162560Y-73660
X182880Y-99060
X182880Y-104140
X157480Y-125730
X162560Y-125730
X157480Y-80010
X162560Y-80010
X157480Y-119380
X162560Y-119380
X167640Y-59690
X175140Y-59690
X182880Y-118110
X182880Y-123190
X182880Y-76200
X182880Y-81280
X168910Y-96520
X168910Y-104020
T4
X144667Y-139460
X144667Y-109460
X144667Y-61200
X144667Y-91200
T5
X55000Y-55000
X55000Y-145000
X185000Y-55000
X185000Y-145000
T0
M30
